<svg width="98" height="29" viewBox="0 0 98 29" fill="none" xmlns="http://www.w3.org/2000/svg">
<path d="M29.16 16.12C29.16 16.4064 29.0462 16.6812 28.8437 16.8837C28.6412 17.0862 28.3664 17.2 28.08 17.2C27.7936 17.2 27.5188 17.0862 27.3163 16.8837C27.1138 16.6812 27 16.4064 27 16.12C26.9961 12.684 25.6294 9.38987 23.1998 6.96024C20.7701 4.53062 17.476 3.16393 14.04 3.16C10.8903 3.16357 7.87072 4.41636 5.64352 6.64352C3.41636 8.87072 2.16357 11.8903 2.16 15.04C2.16322 17.9034 3.3021 20.6485 5.3268 22.6732C7.35145 24.6979 10.0966 25.8368 12.96 25.84C15.537 25.8372 18.0077 24.8122 19.8299 22.9899C21.6522 21.1677 22.6772 18.697 22.68 16.12C22.6775 13.8293 21.7664 11.6331 20.1466 10.0134C18.5269 8.39357 16.3307 7.48248 14.04 7.48C12.0356 7.48216 10.114 8.27931 8.69659 9.69659C7.27931 11.114 6.48216 13.0356 6.48 15.04C6.48184 16.7581 7.16504 18.4053 8.37994 19.6201C9.59472 20.835 11.2419 21.5182 12.96 21.52C13.6691 21.52 14.3713 21.3804 15.0265 21.109C15.6816 20.8375 16.2769 20.4398 16.7783 19.9383C17.2798 19.4369 17.6775 18.8416 17.949 18.1865C18.2204 17.5313 18.36 16.8291 18.36 16.12C18.36 14.9742 17.9049 13.8754 17.0947 13.0653C16.2846 12.2551 15.1858 11.8 14.04 11.8C13.1808 11.8 12.3566 12.1414 11.749 12.749C11.1414 13.3566 10.8 14.1808 10.8 15.04C10.8 15.6128 11.0276 16.1622 11.4327 16.5673C11.8378 16.9724 12.3872 17.2 12.96 17.2C13.2464 17.2 13.5212 17.0862 13.7237 16.8837C13.9262 16.6812 14.04 16.4064 14.04 16.12C13.7536 16.12 13.4788 16.0062 13.2763 15.8037C13.0738 15.6012 12.96 15.3264 12.96 15.04C12.96 14.7536 13.0738 14.4788 13.2763 14.2763C13.4788 14.0738 13.7536 13.96 14.04 13.96C14.6128 13.96 15.1622 14.1876 15.5673 14.5927C15.9724 14.9978 16.2 15.5472 16.2 16.12C16.2 16.9792 15.8586 17.8034 15.251 18.411C14.6434 19.0186 13.8192 19.36 12.96 19.36C11.8142 19.36 10.7154 18.9049 9.90533 18.0947C9.09511 17.2846 8.64 16.1858 8.64 15.04C8.64 13.6078 9.20894 12.2343 10.2217 11.2217C11.2343 10.2089 12.6078 9.64 14.04 9.64C15.7581 9.64184 17.4053 10.325 18.6201 11.5399C19.835 12.7547 20.5182 14.4019 20.52 16.12C20.5178 18.1244 19.7207 20.046 18.3034 21.4634C16.886 22.8807 14.9644 23.6778 12.96 23.68C10.6693 23.6775 8.47314 22.7664 6.85336 21.1466C5.23358 19.5269 4.32251 17.3307 4.32 15.04C4.32286 12.463 5.34785 9.9923 7.17012 8.17012C8.9923 6.34785 11.463 5.32286 14.04 5.32C16.9034 5.32322 19.6485 6.4621 21.6732 8.48678C23.6979 10.5115 24.8368 13.2566 24.84 16.12C24.8364 19.2697 23.5836 22.2893 21.3565 24.5165C19.1293 26.7436 16.1097 27.9964 12.96 28C9.52398 27.9961 6.22986 26.6294 3.80024 24.1998C1.37062 21.7701 0.0039312 18.476 0 15.04C0.0039312 11.3176 1.48441 7.7487 4.11656 5.11656C6.7487 2.48441 10.3176 1.00393 14.04 1C18.0487 1.00429 21.8921 2.59866 24.7267 5.43328C27.5614 8.26786 29.1557 12.1113 29.16 16.12Z" fill="#6366F1"/>
<path d="M44.9531 11V6.52344H37.5781V11H34.6797V0.265625H37.5781V4.17188H44.9531V0.265625H47.8516V11H44.9531ZM60.3125 11V9.94531C59.9427 10.1484 59.5443 10.3281 59.1172 10.4844C58.6953 10.6406 58.2552 10.7734 57.7969 10.8828C57.3385 10.9922 56.8646 11.0729 56.375 11.125C55.8906 11.1823 55.401 11.2109 54.9062 11.2109C54.3281 11.2109 53.7682 11.1562 53.2266 11.0469C52.6901 10.9375 52.2135 10.7604 51.7969 10.5156C51.3802 10.2708 51.0443 9.95052 50.7891 9.55469C50.5391 9.15885 50.4141 8.67448 50.4141 8.10156C50.4141 7.3776 50.612 6.77604 51.0078 6.29688C51.4036 5.8125 52.0078 5.41667 52.8203 5.10938C53.6328 4.80208 54.6589 4.5651 55.8984 4.39844C57.1432 4.23177 58.6146 4.10156 60.3125 4.00781V3.78125C60.3125 3.60417 60.2656 3.42969 60.1719 3.25781C60.0781 3.08073 59.9062 2.92708 59.6562 2.79688C59.4115 2.66146 59.0729 2.55208 58.6406 2.46875C58.2135 2.38542 57.6667 2.34375 57 2.34375C56.474 2.34375 55.9531 2.3724 55.4375 2.42969C54.9271 2.48177 54.4323 2.55469 53.9531 2.64844C53.4792 2.74219 53.0286 2.85156 52.6016 2.97656C52.1745 3.10156 51.7865 3.23177 51.4375 3.36719V0.789062C51.8021 0.695312 52.2109 0.604167 52.6641 0.515625C53.1172 0.427083 53.5885 0.351562 54.0781 0.289062C54.5677 0.221354 55.0625 0.169271 55.5625 0.132812C56.0625 0.0911458 56.5417 0.0703125 57 0.0703125C57.901 0.0703125 58.7318 0.145833 59.4922 0.296875C60.2526 0.442708 60.9062 0.671875 61.4531 0.984375C62.0052 1.29688 62.4349 1.69271 62.7422 2.17188C63.0547 2.65104 63.2109 3.22135 63.2109 3.88281V11H60.3125ZM60.3125 6.10156C59.1979 6.14323 58.25 6.20312 57.4688 6.28125C56.6927 6.35938 56.0469 6.45052 55.5312 6.55469C55.0156 6.65885 54.6094 6.77083 54.3125 6.89062C54.0208 7.01042 53.8021 7.13281 53.6562 7.25781C53.5104 7.38281 53.4193 7.50781 53.3828 7.63281C53.3516 7.75781 53.3359 7.8724 53.3359 7.97656C53.3359 8.10156 53.3698 8.22396 53.4375 8.34375C53.5052 8.45833 53.6224 8.5599 53.7891 8.64844C53.9609 8.73698 54.1875 8.80729 54.4688 8.85938C54.75 8.91146 55.1042 8.9375 55.5312 8.9375C56.0052 8.9375 56.4688 8.90104 56.9219 8.82812C57.375 8.75521 57.8047 8.65625 58.2109 8.53125C58.6172 8.40104 58.9974 8.25 59.3516 8.07812C59.7109 7.90104 60.0312 7.71354 60.3125 7.51562V6.10156ZM76.3984 2.69531C76.3203 2.66927 76.2057 2.63542 76.0547 2.59375C75.9089 2.54688 75.737 2.5026 75.5391 2.46094C75.3411 2.41406 75.1224 2.375 74.8828 2.34375C74.6484 2.3125 74.4062 2.29688 74.1562 2.29688C73.6354 2.29688 73.1484 2.36198 72.6953 2.49219C72.2474 2.61719 71.8281 2.78646 71.4375 3C71.0469 3.20833 70.6823 3.44792 70.3438 3.71875C70.0104 3.98438 69.7031 4.25781 69.4219 4.53906V11H66.5234V0.265625H69.4219V2.00781C69.7708 1.7474 70.1276 1.4974 70.4922 1.25781C70.862 1.01302 71.2448 0.796875 71.6406 0.609375C72.0417 0.421875 72.4635 0.273438 72.9062 0.164062C73.349 0.0494792 73.8177 -0.0078125 74.3125 -0.0078125C74.5 -0.0078125 74.6901 0.00260417 74.8828 0.0234375C75.0807 0.0390625 75.2708 0.0598958 75.4531 0.0859375C75.6406 0.111979 75.8151 0.140625 75.9766 0.171875C76.138 0.203125 76.2786 0.234375 76.3984 0.265625V2.69531ZM81.1406 0.265625V1.44531C81.3958 1.28385 81.6719 1.11719 81.9688 0.945312C82.2708 0.773438 82.5964 0.617188 82.9453 0.476562C83.2995 0.335938 83.6771 0.221354 84.0781 0.132812C84.4844 0.0390625 84.9219 -0.0078125 85.3906 -0.0078125C85.849 -0.0078125 86.25 0.0416667 86.5938 0.140625C86.9375 0.234375 87.2344 0.359375 87.4844 0.515625C87.7396 0.666667 87.9557 0.838542 88.1328 1.03125C88.3099 1.21875 88.4635 1.40625 88.5938 1.59375C88.9635 1.35417 89.3281 1.13542 89.6875 0.9375C90.0469 0.739583 90.4089 0.570312 90.7734 0.429688C91.138 0.289062 91.5104 0.182292 91.8906 0.109375C92.2708 0.03125 92.6667 -0.0078125 93.0781 -0.0078125C93.7344 -0.0078125 94.3203 0.0833333 94.8359 0.265625C95.3568 0.447917 95.7969 0.697917 96.1562 1.01562C96.5156 1.33333 96.7891 1.70833 96.9766 2.14062C97.1693 2.56771 97.2656 3.02604 97.2656 3.51562V11H94.3672V3.92969C94.3672 3.64323 94.3229 3.39583 94.2344 3.1875C94.1458 2.97917 94.026 2.8099 93.875 2.67969C93.7292 2.54948 93.5547 2.45312 93.3516 2.39062C93.1536 2.32812 92.9427 2.29688 92.7188 2.29688C91.6771 2.29688 90.4896 2.76562 89.1562 3.70312C89.1719 3.79167 89.1823 3.89583 89.1875 4.01562C89.1979 4.13542 89.2031 4.25521 89.2031 4.375V11H86.3047V3.86719C86.3047 3.58073 86.2604 3.33854 86.1719 3.14062C86.0833 2.9375 85.9609 2.77344 85.8047 2.64844C85.6536 2.52344 85.4766 2.4349 85.2734 2.38281C85.0755 2.32552 84.8646 2.29688 84.6406 2.29688C84.3698 2.29688 84.0833 2.33594 83.7812 2.41406C83.4844 2.49219 83.1823 2.60156 82.875 2.74219C82.5729 2.88281 82.2734 3.04948 81.9766 3.24219C81.6849 3.4349 81.4062 3.64323 81.1406 3.86719V11H78.2422V0.265625H81.1406ZM48.5703 22.6406C48.5703 23.5625 48.401 24.3776 48.0625 25.0859C47.724 25.7891 47.2396 26.3776 46.6094 26.8516C45.9792 27.3255 45.2135 27.6849 44.3125 27.9297C43.4167 28.1693 42.4089 28.2891 41.2891 28.2891C40.1693 28.2891 39.1562 28.1693 38.25 27.9297C37.349 27.6849 36.5807 27.3255 35.9453 26.8516C35.3099 26.3776 34.8203 25.7891 34.4766 25.0859C34.1328 24.3776 33.9609 23.5625 33.9609 22.6406C33.9609 21.7188 34.1328 20.9062 34.4766 20.2031C34.8203 19.4948 35.3099 18.9036 35.9453 18.4297C36.5807 17.9557 37.349 17.599 38.25 17.3594C39.1562 17.1146 40.1693 16.9922 41.2891 16.9922C42.4089 16.9922 43.4167 17.1146 44.3125 17.3594C45.2135 17.599 45.9792 17.9557 46.6094 18.4297C47.2396 18.9036 47.724 19.4948 48.0625 20.2031C48.401 20.9062 48.5703 21.7188 48.5703 22.6406ZM45.6406 22.6406C45.6406 22.2396 45.5755 21.8411 45.4453 21.4453C45.3203 21.0443 45.0938 20.6849 44.7656 20.3672C44.4427 20.0495 44 19.7917 43.4375 19.5938C42.875 19.3958 42.1589 19.2969 41.2891 19.2969C40.7057 19.2969 40.1927 19.3438 39.75 19.4375C39.3073 19.526 38.9245 19.651 38.6016 19.8125C38.2786 19.974 38.0078 20.1641 37.7891 20.3828C37.5703 20.5964 37.3958 20.8281 37.2656 21.0781C37.1354 21.3229 37.0417 21.5807 36.9844 21.8516C36.9323 22.1172 36.9062 22.3802 36.9062 22.6406C36.9062 22.9062 36.9323 23.1745 36.9844 23.4453C37.0417 23.7161 37.1354 23.9766 37.2656 24.2266C37.3958 24.4714 37.5703 24.7005 37.7891 24.9141C38.0078 25.1276 38.2786 25.3151 38.6016 25.4766C38.9245 25.6328 39.3073 25.7578 39.75 25.8516C40.1927 25.9401 40.7057 25.9844 41.2891 25.9844C42.1589 25.9844 42.875 25.8854 43.4375 25.6875C44 25.4896 44.4427 25.2318 44.7656 24.9141C45.0938 24.5964 45.3203 24.2396 45.4453 23.8438C45.5755 23.4427 45.6406 23.0417 45.6406 22.6406ZM61.4375 28V21.9844C61.4375 21.5833 61.4036 21.2214 61.3359 20.8984C61.2682 20.5703 61.1406 20.2917 60.9531 20.0625C60.7708 19.8281 60.513 19.6484 60.1797 19.5234C59.8516 19.3932 59.4271 19.3281 58.9062 19.3281C58.5104 19.3281 58.0938 19.3828 57.6562 19.4922C57.224 19.5964 56.7943 19.737 56.3672 19.9141C55.9401 20.0911 55.5312 20.2969 55.1406 20.5312C54.7552 20.7656 54.4115 21.0104 54.1094 21.2656V28H51.2109V17.2656H54.1094V18.7344C54.474 18.526 54.862 18.3203 55.2734 18.1172C55.6849 17.9089 56.1224 17.7214 56.5859 17.5547C57.0495 17.388 57.5417 17.2526 58.0625 17.1484C58.5833 17.0443 59.1328 16.9922 59.7109 16.9922C60.4349 16.9922 61.0807 17.0807 61.6484 17.2578C62.2214 17.4297 62.7057 17.6771 63.1016 18C63.4974 18.3177 63.7995 18.7057 64.0078 19.1641C64.2214 19.6172 64.3281 20.125 64.3281 20.6875V28H61.4375ZM80.3984 23.875C80.3984 24.5729 80.2266 25.1953 79.8828 25.7422C79.5391 26.2891 79.0495 26.7526 78.4141 27.1328C77.7839 27.5078 77.0182 27.7943 76.1172 27.9922C75.2214 28.1901 74.2161 28.2891 73.1016 28.2891C72.612 28.2891 72.0964 28.2682 71.5547 28.2266C71.0182 28.1901 70.4922 28.1354 69.9766 28.0625C69.4661 27.9948 68.987 27.9167 68.5391 27.8281C68.0911 27.7344 67.7135 27.6328 67.4062 27.5234V24.9766C67.7396 25.1172 68.1094 25.25 68.5156 25.375C68.9271 25.5 69.3724 25.612 69.8516 25.7109C70.3307 25.8047 70.8438 25.8802 71.3906 25.9375C71.9427 25.9896 72.526 26.0156 73.1406 26.0156C73.7188 26.0156 74.2266 25.9818 74.6641 25.9141C75.1068 25.8464 75.4896 25.7552 75.8125 25.6406C76.1354 25.526 76.4036 25.3958 76.6172 25.25C76.8307 25.099 77.0026 24.9453 77.1328 24.7891C77.263 24.6276 77.3542 24.4688 77.4062 24.3125C77.4635 24.1562 77.4922 24.0104 77.4922 23.875V22.9297C76.9609 23.3203 76.3281 23.6432 75.5938 23.8984C74.8594 24.1484 74.0234 24.2734 73.0859 24.2734C71.9974 24.2734 71.0885 24.1693 70.3594 23.9609C69.6354 23.7474 69.0547 23.4427 68.6172 23.0469C68.1797 22.6458 67.8672 22.1589 67.6797 21.5859C67.4974 21.013 67.4062 20.3672 67.4062 19.6484V17.2656H70.3203V19.3594C70.3203 19.7812 70.375 20.1562 70.4844 20.4844C70.599 20.8125 70.776 21.0885 71.0156 21.3125C71.2604 21.5312 71.5755 21.6979 71.9609 21.8125C72.3464 21.9271 72.8125 21.9844 73.3594 21.9844C73.8229 21.9844 74.2604 21.9271 74.6719 21.8125C75.0885 21.6979 75.4714 21.5469 75.8203 21.3594C76.1693 21.1719 76.4844 20.9583 76.7656 20.7188C77.0469 20.4792 77.2891 20.2344 77.4922 19.9844V17.2656H80.3984V23.875Z" fill="#6366F1"/>
</svg>
