<svg width="32" height="32" viewBox="0 0 32 32" fill="none" xmlns="http://www.w3.org/2000/svg">
<path d="M31 18C31 18.2652 30.8946 18.5196 30.7071 18.7071C30.5196 18.8946 30.2652 19 30 19C29.7348 19 29.4804 18.8946 29.2929 18.7071C29.1054 18.5196 29 18.2652 29 18C28.9964 14.8185 27.7309 11.7684 25.4813 9.51874C23.2316 7.26909 20.1815 6.00364 17 6C14.0836 6.00331 11.2877 7.1633 9.22548 9.22548C7.1633 11.2877 6.00331 14.0836 6 17C6.00298 19.6513 7.0575 22.1931 8.93222 24.0678C10.8069 25.9425 13.3487 26.997 16 27C18.3861 26.9974 20.6738 26.0483 22.361 24.361C24.0483 22.6738 24.9974 20.3861 25 18C24.9977 15.879 24.1541 13.8455 22.6543 12.3457C21.1545 10.8459 19.121 10.0023 17 10C15.1441 10.002 13.3648 10.7401 12.0524 12.0524C10.7401 13.3648 10.002 15.1441 10 17C10.0017 18.5908 10.6343 20.116 11.7592 21.2408C12.884 22.3657 14.4092 22.9983 16 23C16.6566 23 17.3068 22.8707 17.9134 22.6194C18.52 22.3681 19.0712 21.9998 19.5355 21.5355C19.9998 21.0712 20.3681 20.52 20.6194 19.9134C20.8707 19.3068 21 18.6566 21 18C21 16.9391 20.5786 15.9217 19.8284 15.1716C19.0783 14.4214 18.0609 14 17 14C16.2044 14 15.4413 14.3161 14.8787 14.8787C14.3161 15.4413 14 16.2044 14 17C14 17.5304 14.2107 18.0391 14.5858 18.4142C14.9609 18.7893 15.4696 19 16 19C16.2652 19 16.5196 18.8946 16.7071 18.7071C16.8946 18.5196 17 18.2652 17 18C16.7348 18 16.4804 17.8946 16.2929 17.7071C16.1054 17.5196 16 17.2652 16 17C16 16.7348 16.1054 16.4804 16.2929 16.2929C16.4804 16.1054 16.7348 16 17 16C17.5304 16 18.0391 16.2107 18.4142 16.5858C18.7893 16.9609 19 17.4696 19 18C19 18.7956 18.6839 19.5587 18.1213 20.1213C17.5587 20.6839 16.7956 21 16 21C14.9391 21 13.9217 20.5786 13.1716 19.8284C12.4214 19.0783 12 18.0609 12 17C12 15.6739 12.5268 14.4021 13.4645 13.4645C14.4021 12.5268 15.6739 12 17 12C18.5908 12.0017 20.116 12.6343 21.2408 13.7592C22.3657 14.884 22.9983 16.4092 23 18C22.998 19.8559 22.2599 21.6352 20.9476 22.9476C19.6352 24.2599 17.8559 24.998 16 25C13.879 24.9977 11.8455 24.1541 10.3457 22.6543C8.84591 21.1545 8.00232 19.121 8 17C8.00265 14.6139 8.95171 12.3262 10.639 10.639C12.3262 8.95171 14.6139 8.00265 17 8C19.6513 8.00298 22.1931 9.0575 24.0678 10.9322C25.9425 12.8069 26.997 15.3487 27 18C26.9967 20.9164 25.8367 23.7123 23.7745 25.7745C21.7123 27.8367 18.9164 28.9967 16 29C12.8185 28.9964 9.76839 27.7309 7.51874 25.4813C5.26909 23.2316 4.00364 20.1815 4 17C4.00364 13.5533 5.37445 10.2488 7.81163 7.81163C10.2488 5.37445 13.5533 4.00364 17 4C20.7118 4.00397 24.2705 5.48024 26.8951 8.10489C29.5198 10.7295 30.996 14.2882 31 18Z" fill="#6366F1"/>
</svg>
